<mxfile host="app.diagrams.net" agent="Mozilla/5.0 (Windows NT 10.0; Win64; x64) AppleWebKit/537.36 (KHTML, like Gecko) Chrome/135.0.0.0 Safari/537.36" version="25.0.3">
  <diagram name="Страница — 1" id="Un4LtSKA8o2aX5VWOtDc">
    <mxGraphModel dx="3006" dy="1571" grid="0" gridSize="10" guides="1" tooltips="1" connect="1" arrows="1" fold="1" page="0" pageScale="1" pageWidth="827" pageHeight="1169" math="0" shadow="0">
      <root>
        <mxCell id="0" />
        <mxCell id="1" parent="0" />
        <mxCell id="_xg-o4j1VPgXo0PjKagj-23" style="edgeStyle=orthogonalEdgeStyle;rounded=0;orthogonalLoop=1;jettySize=auto;html=1;entryX=0;entryY=0.5;entryDx=0;entryDy=0;jumpSize=16;strokeWidth=6;" edge="1" parent="1" source="_xg-o4j1VPgXo0PjKagj-1" target="_xg-o4j1VPgXo0PjKagj-3">
          <mxGeometry relative="1" as="geometry" />
        </mxCell>
        <mxCell id="_xg-o4j1VPgXo0PjKagj-1" value="&lt;font style=&quot;font-size: 24px;&quot;&gt;Z1&lt;/font&gt;" style="ellipse;whiteSpace=wrap;html=1;aspect=fixed;" vertex="1" parent="1">
          <mxGeometry x="-589" y="158" width="80" height="80" as="geometry" />
        </mxCell>
        <mxCell id="_xg-o4j1VPgXo0PjKagj-3" value="&lt;span style=&quot;font-size: 24px;&quot;&gt;Z2&lt;/span&gt;" style="ellipse;whiteSpace=wrap;html=1;aspect=fixed;" vertex="1" parent="1">
          <mxGeometry x="-371" y="158" width="80" height="80" as="geometry" />
        </mxCell>
        <mxCell id="_xg-o4j1VPgXo0PjKagj-4" value="&lt;span style=&quot;font-size: 24px;&quot;&gt;Z4&lt;/span&gt;" style="ellipse;whiteSpace=wrap;html=1;aspect=fixed;" vertex="1" parent="1">
          <mxGeometry x="-204" y="287" width="80" height="80" as="geometry" />
        </mxCell>
        <mxCell id="_xg-o4j1VPgXo0PjKagj-5" value="&lt;span style=&quot;font-size: 24px;&quot;&gt;Z3&lt;/span&gt;" style="ellipse;whiteSpace=wrap;html=1;aspect=fixed;" vertex="1" parent="1">
          <mxGeometry x="-204" y="49" width="80" height="80" as="geometry" />
        </mxCell>
        <mxCell id="_xg-o4j1VPgXo0PjKagj-6" value="&lt;span style=&quot;font-size: 24px;&quot;&gt;Z7&lt;/span&gt;" style="ellipse;whiteSpace=wrap;html=1;aspect=fixed;" vertex="1" parent="1">
          <mxGeometry x="135" y="-342" width="80" height="80" as="geometry" />
        </mxCell>
        <mxCell id="_xg-o4j1VPgXo0PjKagj-8" value="&lt;span style=&quot;font-size: 24px;&quot;&gt;Z8&lt;/span&gt;" style="ellipse;whiteSpace=wrap;html=1;aspect=fixed;" vertex="1" parent="1">
          <mxGeometry x="247" y="18" width="80" height="80" as="geometry" />
        </mxCell>
        <mxCell id="_xg-o4j1VPgXo0PjKagj-9" value="&lt;span style=&quot;font-size: 24px;&quot;&gt;Z6&lt;/span&gt;" style="ellipse;whiteSpace=wrap;html=1;aspect=fixed;" vertex="1" parent="1">
          <mxGeometry x="317" y="448" width="80" height="80" as="geometry" />
        </mxCell>
        <mxCell id="_xg-o4j1VPgXo0PjKagj-11" value="&lt;span style=&quot;font-size: 24px;&quot;&gt;Z5&lt;/span&gt;" style="ellipse;whiteSpace=wrap;html=1;aspect=fixed;" vertex="1" parent="1">
          <mxGeometry x="161" y="238" width="80" height="80" as="geometry" />
        </mxCell>
        <mxCell id="_xg-o4j1VPgXo0PjKagj-12" value="&lt;span style=&quot;font-size: 24px;&quot;&gt;Z11&lt;/span&gt;" style="ellipse;whiteSpace=wrap;html=1;aspect=fixed;" vertex="1" parent="1">
          <mxGeometry x="681" y="18" width="80" height="80" as="geometry" />
        </mxCell>
        <mxCell id="_xg-o4j1VPgXo0PjKagj-13" value="&lt;span style=&quot;font-size: 24px;&quot;&gt;Z9&lt;/span&gt;" style="ellipse;whiteSpace=wrap;html=1;aspect=fixed;" vertex="1" parent="1">
          <mxGeometry x="617" y="-277" width="80" height="80" as="geometry" />
        </mxCell>
        <mxCell id="_xg-o4j1VPgXo0PjKagj-14" value="&lt;span style=&quot;font-size: 24px;&quot;&gt;Z15&lt;/span&gt;" style="ellipse;whiteSpace=wrap;html=1;aspect=fixed;" vertex="1" parent="1">
          <mxGeometry x="-288" y="-262" width="80" height="80" as="geometry" />
        </mxCell>
        <mxCell id="_xg-o4j1VPgXo0PjKagj-54" style="edgeStyle=orthogonalEdgeStyle;rounded=0;orthogonalLoop=1;jettySize=auto;html=1;entryX=0;entryY=0.5;entryDx=0;entryDy=0;strokeWidth=6;" edge="1" parent="1" source="_xg-o4j1VPgXo0PjKagj-15" target="_xg-o4j1VPgXo0PjKagj-19">
          <mxGeometry relative="1" as="geometry" />
        </mxCell>
        <mxCell id="_xg-o4j1VPgXo0PjKagj-15" value="&lt;span style=&quot;font-size: 24px;&quot;&gt;Z13&lt;/span&gt;" style="ellipse;whiteSpace=wrap;html=1;aspect=fixed;" vertex="1" parent="1">
          <mxGeometry x="1070" y="103" width="80" height="80" as="geometry" />
        </mxCell>
        <mxCell id="_xg-o4j1VPgXo0PjKagj-16" value="&lt;span style=&quot;font-size: 24px;&quot;&gt;Z12&lt;/span&gt;" style="ellipse;whiteSpace=wrap;html=1;aspect=fixed;" vertex="1" parent="1">
          <mxGeometry x="949" y="-168" width="80" height="80" as="geometry" />
        </mxCell>
        <mxCell id="_xg-o4j1VPgXo0PjKagj-17" value="&lt;span style=&quot;font-size: 24px;&quot;&gt;Z10&lt;/span&gt;" style="ellipse;whiteSpace=wrap;html=1;aspect=fixed;" vertex="1" parent="1">
          <mxGeometry x="669" y="325" width="80" height="80" as="geometry" />
        </mxCell>
        <mxCell id="_xg-o4j1VPgXo0PjKagj-19" value="&lt;span style=&quot;font-size: 24px;&quot;&gt;Z14&lt;/span&gt;" style="ellipse;whiteSpace=wrap;html=1;aspect=fixed;" vertex="1" parent="1">
          <mxGeometry x="1237" y="103" width="80" height="80" as="geometry" />
        </mxCell>
        <mxCell id="_xg-o4j1VPgXo0PjKagj-20" value="&lt;span style=&quot;font-size: 24px;&quot;&gt;Z16&lt;/span&gt;" style="ellipse;whiteSpace=wrap;html=1;aspect=fixed;" vertex="1" parent="1">
          <mxGeometry x="38" y="531" width="80" height="80" as="geometry" />
        </mxCell>
        <mxCell id="_xg-o4j1VPgXo0PjKagj-25" value="" style="endArrow=classic;html=1;rounded=0;exitX=1;exitY=0;exitDx=0;exitDy=0;entryX=0;entryY=0.5;entryDx=0;entryDy=0;strokeWidth=7;" edge="1" parent="1" source="_xg-o4j1VPgXo0PjKagj-3" target="_xg-o4j1VPgXo0PjKagj-5">
          <mxGeometry width="50" height="50" relative="1" as="geometry">
            <mxPoint x="-296" y="170" as="sourcePoint" />
            <mxPoint x="-246" y="120" as="targetPoint" />
          </mxGeometry>
        </mxCell>
        <mxCell id="_xg-o4j1VPgXo0PjKagj-26" value="" style="endArrow=classic;html=1;rounded=0;exitX=1;exitY=1;exitDx=0;exitDy=0;entryX=0;entryY=0;entryDx=0;entryDy=0;" edge="1" parent="1" source="_xg-o4j1VPgXo0PjKagj-3" target="_xg-o4j1VPgXo0PjKagj-4">
          <mxGeometry width="50" height="50" relative="1" as="geometry">
            <mxPoint x="-261" y="267" as="sourcePoint" />
            <mxPoint x="-211" y="217" as="targetPoint" />
          </mxGeometry>
        </mxCell>
        <mxCell id="_xg-o4j1VPgXo0PjKagj-29" value="" style="endArrow=none;dashed=1;html=1;rounded=0;entryX=0.5;entryY=1;entryDx=0;entryDy=0;exitX=0.5;exitY=0;exitDx=0;exitDy=0;startArrow=classic;startFill=1;" edge="1" parent="1" source="_xg-o4j1VPgXo0PjKagj-5" target="_xg-o4j1VPgXo0PjKagj-14">
          <mxGeometry width="50" height="50" relative="1" as="geometry">
            <mxPoint x="7" y="75" as="sourcePoint" />
            <mxPoint x="-186" y="-74" as="targetPoint" />
          </mxGeometry>
        </mxCell>
        <mxCell id="_xg-o4j1VPgXo0PjKagj-32" value="" style="endArrow=classic;html=1;rounded=0;exitX=1;exitY=0;exitDx=0;exitDy=0;entryX=0;entryY=1;entryDx=0;entryDy=0;" edge="1" parent="1" source="_xg-o4j1VPgXo0PjKagj-5" target="_xg-o4j1VPgXo0PjKagj-6">
          <mxGeometry width="50" height="50" relative="1" as="geometry">
            <mxPoint x="-29" y="-8" as="sourcePoint" />
            <mxPoint x="70" y="-89" as="targetPoint" />
          </mxGeometry>
        </mxCell>
        <mxCell id="_xg-o4j1VPgXo0PjKagj-33" value="" style="endArrow=none;dashed=1;html=1;rounded=0;entryX=0.971;entryY=0.718;entryDx=0;entryDy=0;exitX=0;exitY=0.5;exitDx=0;exitDy=0;entryPerimeter=0;startArrow=classic;startFill=1;" edge="1" parent="1" source="_xg-o4j1VPgXo0PjKagj-6" target="_xg-o4j1VPgXo0PjKagj-14">
          <mxGeometry width="50" height="50" relative="1" as="geometry">
            <mxPoint x="-73" y="-107" as="sourcePoint" />
            <mxPoint x="-97" y="-281" as="targetPoint" />
          </mxGeometry>
        </mxCell>
        <mxCell id="_xg-o4j1VPgXo0PjKagj-34" value="" style="endArrow=none;dashed=1;html=1;rounded=0;entryX=1;entryY=1;entryDx=0;entryDy=0;exitX=0;exitY=0;exitDx=0;exitDy=0;startArrow=classic;startFill=1;" edge="1" parent="1" source="_xg-o4j1VPgXo0PjKagj-11" target="_xg-o4j1VPgXo0PjKagj-14">
          <mxGeometry width="50" height="50" relative="1" as="geometry">
            <mxPoint x="-120" y="-82" as="sourcePoint" />
            <mxPoint x="-294" y="-104" as="targetPoint" />
          </mxGeometry>
        </mxCell>
        <mxCell id="_xg-o4j1VPgXo0PjKagj-35" value="" style="endArrow=classic;html=1;rounded=0;exitX=1;exitY=0.5;exitDx=0;exitDy=0;entryX=0;entryY=0.5;entryDx=0;entryDy=0;" edge="1" parent="1" source="_xg-o4j1VPgXo0PjKagj-4" target="_xg-o4j1VPgXo0PjKagj-9">
          <mxGeometry width="50" height="50" relative="1" as="geometry">
            <mxPoint x="-37" y="375" as="sourcePoint" />
            <mxPoint x="197" y="288" as="targetPoint" />
          </mxGeometry>
        </mxCell>
        <mxCell id="_xg-o4j1VPgXo0PjKagj-36" value="" style="endArrow=classic;html=1;rounded=0;exitX=1;exitY=1;exitDx=0;exitDy=0;entryX=0.282;entryY=0.026;entryDx=0;entryDy=0;entryPerimeter=0;" edge="1" parent="1" source="_xg-o4j1VPgXo0PjKagj-11" target="_xg-o4j1VPgXo0PjKagj-9">
          <mxGeometry width="50" height="50" relative="1" as="geometry">
            <mxPoint x="202" y="190" as="sourcePoint" />
            <mxPoint x="301" y="109" as="targetPoint" />
          </mxGeometry>
        </mxCell>
        <mxCell id="_xg-o4j1VPgXo0PjKagj-37" value="" style="endArrow=none;dashed=1;html=1;rounded=0;entryX=1;entryY=0.5;entryDx=0;entryDy=0;exitX=0.5;exitY=1;exitDx=0;exitDy=0;startArrow=classic;startFill=1;" edge="1" parent="1" source="_xg-o4j1VPgXo0PjKagj-9" target="_xg-o4j1VPgXo0PjKagj-20">
          <mxGeometry width="50" height="50" relative="1" as="geometry">
            <mxPoint x="-32" y="468" as="sourcePoint" />
            <mxPoint x="-238" y="161" as="targetPoint" />
          </mxGeometry>
        </mxCell>
        <mxCell id="_xg-o4j1VPgXo0PjKagj-38" value="" style="endArrow=classic;html=1;rounded=0;exitX=1;exitY=0;exitDx=0;exitDy=0;entryX=0.5;entryY=1;entryDx=0;entryDy=0;" edge="1" parent="1" source="_xg-o4j1VPgXo0PjKagj-4" target="_xg-o4j1VPgXo0PjKagj-6">
          <mxGeometry width="50" height="50" relative="1" as="geometry">
            <mxPoint x="-89" y="177" as="sourcePoint" />
            <mxPoint x="83" y="18" as="targetPoint" />
          </mxGeometry>
        </mxCell>
        <mxCell id="_xg-o4j1VPgXo0PjKagj-39" value="" style="endArrow=classic;html=1;rounded=0;exitX=0.974;exitY=0.32;exitDx=0;exitDy=0;entryX=0;entryY=1;entryDx=0;entryDy=0;exitPerimeter=0;" edge="1" parent="1" source="_xg-o4j1VPgXo0PjKagj-4" target="_xg-o4j1VPgXo0PjKagj-8">
          <mxGeometry width="50" height="50" relative="1" as="geometry">
            <mxPoint x="12" y="203" as="sourcePoint" />
            <mxPoint x="283" y="-168" as="targetPoint" />
          </mxGeometry>
        </mxCell>
        <mxCell id="_xg-o4j1VPgXo0PjKagj-40" value="" style="endArrow=classic;html=1;rounded=0;exitX=1;exitY=0.5;exitDx=0;exitDy=0;entryX=0;entryY=0.5;entryDx=0;entryDy=0;strokeWidth=7;" edge="1" parent="1" source="_xg-o4j1VPgXo0PjKagj-5" target="_xg-o4j1VPgXo0PjKagj-8">
          <mxGeometry width="50" height="50" relative="1" as="geometry">
            <mxPoint x="-69" y="54" as="sourcePoint" />
            <mxPoint x="248" y="-200" as="targetPoint" />
          </mxGeometry>
        </mxCell>
        <mxCell id="_xg-o4j1VPgXo0PjKagj-41" value="" style="endArrow=classic;html=1;rounded=0;exitX=1;exitY=0;exitDx=0;exitDy=0;entryX=0;entryY=1;entryDx=0;entryDy=0;" edge="1" parent="1" source="_xg-o4j1VPgXo0PjKagj-9" target="_xg-o4j1VPgXo0PjKagj-13">
          <mxGeometry width="50" height="50" relative="1" as="geometry">
            <mxPoint x="285" y="182" as="sourcePoint" />
            <mxPoint x="602" y="-72" as="targetPoint" />
          </mxGeometry>
        </mxCell>
        <mxCell id="_xg-o4j1VPgXo0PjKagj-42" value="" style="endArrow=classic;html=1;rounded=0;exitX=1;exitY=0.5;exitDx=0;exitDy=0;entryX=0.5;entryY=0;entryDx=0;entryDy=0;" edge="1" parent="1" source="_xg-o4j1VPgXo0PjKagj-6" target="_xg-o4j1VPgXo0PjKagj-13">
          <mxGeometry width="50" height="50" relative="1" as="geometry">
            <mxPoint x="308" y="25" as="sourcePoint" />
            <mxPoint x="435" y="-88" as="targetPoint" />
          </mxGeometry>
        </mxCell>
        <mxCell id="_xg-o4j1VPgXo0PjKagj-43" value="" style="endArrow=classic;html=1;rounded=0;exitX=1;exitY=0.5;exitDx=0;exitDy=0;entryX=0;entryY=0.5;entryDx=0;entryDy=0;strokeWidth=7;" edge="1" parent="1" source="_xg-o4j1VPgXo0PjKagj-8" target="_xg-o4j1VPgXo0PjKagj-13">
          <mxGeometry width="50" height="50" relative="1" as="geometry">
            <mxPoint x="269" y="150" as="sourcePoint" />
            <mxPoint x="396" y="37" as="targetPoint" />
          </mxGeometry>
        </mxCell>
        <mxCell id="_xg-o4j1VPgXo0PjKagj-44" value="" style="endArrow=classic;html=1;rounded=0;exitX=0.98;exitY=0.328;exitDx=0;exitDy=0;entryX=0;entryY=0.5;entryDx=0;entryDy=0;exitPerimeter=0;" edge="1" parent="1" source="_xg-o4j1VPgXo0PjKagj-9" target="_xg-o4j1VPgXo0PjKagj-17">
          <mxGeometry width="50" height="50" relative="1" as="geometry">
            <mxPoint x="451" y="211" as="sourcePoint" />
            <mxPoint x="578" y="98" as="targetPoint" />
          </mxGeometry>
        </mxCell>
        <mxCell id="_xg-o4j1VPgXo0PjKagj-45" value="" style="endArrow=classic;html=1;rounded=0;exitX=1;exitY=1;exitDx=0;exitDy=0;entryX=0;entryY=0;entryDx=0;entryDy=0;" edge="1" parent="1" source="_xg-o4j1VPgXo0PjKagj-8" target="_xg-o4j1VPgXo0PjKagj-17">
          <mxGeometry width="50" height="50" relative="1" as="geometry">
            <mxPoint x="465" y="82" as="sourcePoint" />
            <mxPoint x="592" y="-31" as="targetPoint" />
          </mxGeometry>
        </mxCell>
        <mxCell id="_xg-o4j1VPgXo0PjKagj-46" value="" style="endArrow=classic;html=1;rounded=0;exitX=1;exitY=1;exitDx=0;exitDy=0;entryX=0.5;entryY=0;entryDx=0;entryDy=0;" edge="1" parent="1" source="_xg-o4j1VPgXo0PjKagj-6" target="_xg-o4j1VPgXo0PjKagj-17">
          <mxGeometry width="50" height="50" relative="1" as="geometry">
            <mxPoint x="208" y="-55" as="sourcePoint" />
            <mxPoint x="335" y="-168" as="targetPoint" />
          </mxGeometry>
        </mxCell>
        <mxCell id="_xg-o4j1VPgXo0PjKagj-48" value="" style="endArrow=classic;html=1;rounded=0;exitX=1;exitY=0;exitDx=0;exitDy=0;entryX=0.5;entryY=1;entryDx=0;entryDy=0;" edge="1" parent="1" source="_xg-o4j1VPgXo0PjKagj-9" target="_xg-o4j1VPgXo0PjKagj-12">
          <mxGeometry width="50" height="50" relative="1" as="geometry">
            <mxPoint x="394" y="457" as="sourcePoint" />
            <mxPoint x="521" y="344" as="targetPoint" />
          </mxGeometry>
        </mxCell>
        <mxCell id="_xg-o4j1VPgXo0PjKagj-49" value="" style="endArrow=classic;html=1;rounded=0;exitX=1;exitY=0.5;exitDx=0;exitDy=0;entryX=0;entryY=0.5;entryDx=0;entryDy=0;" edge="1" parent="1" source="_xg-o4j1VPgXo0PjKagj-8" target="_xg-o4j1VPgXo0PjKagj-12">
          <mxGeometry width="50" height="50" relative="1" as="geometry">
            <mxPoint x="613" y="-17" as="sourcePoint" />
            <mxPoint x="740" y="-130" as="targetPoint" />
          </mxGeometry>
        </mxCell>
        <mxCell id="_xg-o4j1VPgXo0PjKagj-50" value="" style="endArrow=classic;html=1;rounded=0;exitX=1;exitY=1;exitDx=0;exitDy=0;entryX=0;entryY=0;entryDx=0;entryDy=0;" edge="1" parent="1" source="_xg-o4j1VPgXo0PjKagj-6" target="_xg-o4j1VPgXo0PjKagj-12">
          <mxGeometry width="50" height="50" relative="1" as="geometry">
            <mxPoint x="318" y="-217" as="sourcePoint" />
            <mxPoint x="445" y="-330" as="targetPoint" />
          </mxGeometry>
        </mxCell>
        <mxCell id="_xg-o4j1VPgXo0PjKagj-51" value="" style="endArrow=classic;html=1;rounded=0;exitX=0.5;exitY=1;exitDx=0;exitDy=0;entryX=0.5;entryY=0;entryDx=0;entryDy=0;strokeWidth=6;" edge="1" parent="1" source="_xg-o4j1VPgXo0PjKagj-13" target="_xg-o4j1VPgXo0PjKagj-12">
          <mxGeometry width="50" height="50" relative="1" as="geometry">
            <mxPoint x="784" y="-174" as="sourcePoint" />
            <mxPoint x="911" y="-287" as="targetPoint" />
          </mxGeometry>
        </mxCell>
        <mxCell id="_xg-o4j1VPgXo0PjKagj-52" value="" style="endArrow=classic;html=1;rounded=0;exitX=1;exitY=0.5;exitDx=0;exitDy=0;entryX=0;entryY=0;entryDx=0;entryDy=0;" edge="1" parent="1" source="_xg-o4j1VPgXo0PjKagj-13" target="_xg-o4j1VPgXo0PjKagj-16">
          <mxGeometry width="50" height="50" relative="1" as="geometry">
            <mxPoint x="782" y="-222" as="sourcePoint" />
            <mxPoint x="909" y="-335" as="targetPoint" />
          </mxGeometry>
        </mxCell>
        <mxCell id="_xg-o4j1VPgXo0PjKagj-53" value="" style="endArrow=classic;html=1;rounded=0;exitX=1;exitY=0.5;exitDx=0;exitDy=0;entryX=0;entryY=1;entryDx=0;entryDy=0;strokeWidth=6;" edge="1" parent="1" source="_xg-o4j1VPgXo0PjKagj-12" target="_xg-o4j1VPgXo0PjKagj-16">
          <mxGeometry width="50" height="50" relative="1" as="geometry">
            <mxPoint x="890" y="-2" as="sourcePoint" />
            <mxPoint x="1017" y="-115" as="targetPoint" />
          </mxGeometry>
        </mxCell>
        <mxCell id="_xg-o4j1VPgXo0PjKagj-55" value="" style="endArrow=classic;html=1;rounded=0;exitX=0.5;exitY=1;exitDx=0;exitDy=0;entryX=0.5;entryY=0;entryDx=0;entryDy=0;strokeWidth=6;" edge="1" parent="1" source="_xg-o4j1VPgXo0PjKagj-16" target="_xg-o4j1VPgXo0PjKagj-15">
          <mxGeometry width="50" height="50" relative="1" as="geometry">
            <mxPoint x="937" y="216" as="sourcePoint" />
            <mxPoint x="1064" y="103" as="targetPoint" />
          </mxGeometry>
        </mxCell>
        <mxCell id="_xg-o4j1VPgXo0PjKagj-56" value="" style="endArrow=classic;html=1;rounded=0;exitX=1;exitY=1;exitDx=0;exitDy=0;entryX=0;entryY=0;entryDx=0;entryDy=0;strokeWidth=1;" edge="1" parent="1" source="_xg-o4j1VPgXo0PjKagj-13" target="_xg-o4j1VPgXo0PjKagj-15">
          <mxGeometry width="50" height="50" relative="1" as="geometry">
            <mxPoint x="785" y="-107" as="sourcePoint" />
            <mxPoint x="912" y="-220" as="targetPoint" />
          </mxGeometry>
        </mxCell>
        <mxCell id="_xg-o4j1VPgXo0PjKagj-57" value="" style="endArrow=classic;html=1;rounded=0;exitX=1;exitY=0.5;exitDx=0;exitDy=0;entryX=0;entryY=0.5;entryDx=0;entryDy=0;strokeWidth=1;" edge="1" parent="1" source="_xg-o4j1VPgXo0PjKagj-12" target="_xg-o4j1VPgXo0PjKagj-15">
          <mxGeometry width="50" height="50" relative="1" as="geometry">
            <mxPoint x="1027" y="196" as="sourcePoint" />
            <mxPoint x="1154" y="83" as="targetPoint" />
          </mxGeometry>
        </mxCell>
        <mxCell id="_xg-o4j1VPgXo0PjKagj-58" value="" style="endArrow=classic;html=1;rounded=0;exitX=1;exitY=0;exitDx=0;exitDy=0;entryX=0;entryY=1;entryDx=0;entryDy=0;" edge="1" parent="1" source="_xg-o4j1VPgXo0PjKagj-17" target="_xg-o4j1VPgXo0PjKagj-15">
          <mxGeometry width="50" height="50" relative="1" as="geometry">
            <mxPoint x="837" y="323" as="sourcePoint" />
            <mxPoint x="964" y="210" as="targetPoint" />
          </mxGeometry>
        </mxCell>
        <mxCell id="_xg-o4j1VPgXo0PjKagj-59" value="" style="endArrow=none;dashed=1;html=1;rounded=0;entryX=0.5;entryY=0;entryDx=0;entryDy=0;exitX=0.044;exitY=0.835;exitDx=0;exitDy=0;startArrow=classic;startFill=1;exitPerimeter=0;" edge="1" parent="1" source="_xg-o4j1VPgXo0PjKagj-14" target="_xg-o4j1VPgXo0PjKagj-1">
          <mxGeometry width="50" height="50" relative="1" as="geometry">
            <mxPoint x="-474" y="-43" as="sourcePoint" />
            <mxPoint x="-819" y="54" as="targetPoint" />
          </mxGeometry>
        </mxCell>
        <mxCell id="_xg-o4j1VPgXo0PjKagj-60" value="" style="endArrow=none;dashed=1;html=1;rounded=0;entryX=0.5;entryY=1;entryDx=0;entryDy=0;exitX=0;exitY=0.5;exitDx=0;exitDy=0;startArrow=classic;startFill=1;" edge="1" parent="1" source="_xg-o4j1VPgXo0PjKagj-20" target="_xg-o4j1VPgXo0PjKagj-1">
          <mxGeometry width="50" height="50" relative="1" as="geometry">
            <mxPoint x="-518" y="354" as="sourcePoint" />
            <mxPoint x="-863" y="451" as="targetPoint" />
          </mxGeometry>
        </mxCell>
      </root>
    </mxGraphModel>
  </diagram>
</mxfile>
